# This file uses centimeters as units for non-parametric coordinates.

mtllib A 2D block.mtl
g default
v -5.916111 2.629469 0.000000
v -6.176393 2.629469 0.000000
v -6.113038 2.814620 0.000000
v -5.864575 2.814620 0.000000
vt 0.097373 0.417075
vt 0.362201 0.421205
vt 0.427289 0.626228
vt 0.144770 0.620087
vn 0.000000 -0.000000 1.000000
vn 0.000000 -0.000000 1.000000
vn 0.000000 -0.000000 1.000000
vn 0.000000 -0.000000 1.000000
s off
g polySurface2 a
usemtl initialShadingGroup
f 4/1/1 3/2/2 2/3/3 1/4/4
g default
v -6.050848 3.001968 0.000000
v -5.811116 2.999835 0.000000
v -6.113038 2.814620 0.000000
v -5.864575 2.814620 0.000000
vt 0.050848 0.217795
vt 0.298309 0.219952
vt 0.362201 0.421205
vt 0.097373 0.417075
vn 0.000000 0.000000 1.000000
vn 0.000000 0.000000 1.000000
vn 0.000000 0.000000 1.000000
vn 0.000000 0.000000 1.000000
s off
g a polySurface11
usemtl initialShadingGroup
f 6/5/5 5/6/6 7/7/7 8/8/8
g default
v -5.916111 2.629469 0.000000
v -6.176393 2.629469 0.000000
v -5.962716 2.443664 0.000000
v -6.239176 2.443664 0.000000
vt 0.144770 0.620087
vt 0.427289 0.626228
vt 0.491791 0.829402
vt 0.191739 0.821269
vn 0.000000 -0.000000 1.000000
vn 0.000000 -0.000000 1.000000
vn 0.000000 -0.000000 1.000000
vn 0.000000 -0.000000 1.000000
s off
g a polySurface12
usemtl initialShadingGroup
f 9/9/9 10/10/10 12/11/11 11/12/12
g default
v -5.811116 3.211780 0.000000
v -5.982880 3.211780 0.000000
v -6.015210 3.110283 0.000000
v -5.811116 3.110284 0.000000
vt 0.000000 0.000000
vt 0.228481 0.000000
vt 0.261696 0.104624
vt 0.024187 0.103598
vn 0.000000 -0.000000 1.000000
vn 0.000000 -0.000000 1.000000
vn 0.000000 -0.000000 1.000000
vn 0.000000 -0.000000 1.000000
s off
g a polySurface10
usemtl initialShadingGroup
f 13/13/13 14/14/14 15/15/15 16/16/16
g default
v -5.437871 2.629469 0.000000
v -5.711248 2.629469 0.000000
v -5.762518 2.814620 0.000000
v -5.500780 2.814620 0.000000
vt 0.472251 1.000000
vt 0.472251 0.000000
vt 0.735609 0.000000
vt 0.735609 1.000000
vn 0.000000 0.000000 1.000000
vn 0.000000 0.000000 1.000000
vn 0.000000 0.000000 1.000000
vn 0.000000 0.000000 1.000000
s off
g a polySurface8
usemtl initialShadingGroup
f 18/17/17 17/18/18 20/19/19 19/20/20
g default
v -5.711248 2.629469 0.000000
v -5.655048 2.443664 0.000000
v -5.811115 2.629469 0.000000
v -5.811115 2.443664 0.000000
vt 0.000000 0.000000
vt 0.497923 0.000000
vt 0.497923 1.000000
vt 0.000000 1.000000
vn 0.000000 -0.000000 1.000000
vn 0.000000 -0.000000 1.000000
vn 0.000000 -0.000000 1.000000
vn 0.000000 -0.000000 1.000000
s off
g a a5
usemtl initialShadingGroup
f 21/21/21 23/22/22 24/23/23 22/24/24
g default
v -5.437871 2.629469 0.000000
v -5.711248 2.629469 0.000000
v -5.374429 2.443664 0.000000
v -5.655048 2.443664 0.000000
vt 0.206657 1.000000
vt 0.206657 0.000000
vt 0.472251 0.000000
vt 0.472251 1.000000
vn 0.000000 0.000000 1.000000
vn 0.000000 0.000000 1.000000
vn 0.000000 0.000000 1.000000
vn 0.000000 0.000000 1.000000
s off
g a polySurface6
usemtl initialShadingGroup
f 28/25/25 27/26/26 25/27/27 26/28/28
g default
v -6.291893 2.294359 0.000000
v -6.001847 2.294359 0.000000
v -5.962716 2.443664 0.000000
v -6.239176 2.443664 0.000000
vt 0.191739 0.821269
vt 0.491791 0.829402
vt 0.545951 1.000000
vt 0.231177 0.990194
vn 0.000000 0.000000 1.000000
vn 0.000000 0.000000 1.000000
vn 0.000000 0.000000 1.000000
vn 0.000000 0.000000 1.000000
s off
g a polySurface1
usemtl initialShadingGroup
f 31/29/29 32/30/30 29/31/31 30/32/32
g default
v -5.811116 2.999835 0.000000
v -5.563935 2.994834 -0.000000
v -5.762518 2.814620 0.000000
v -5.500780 2.814620 0.000000
vt 0.735609 1.000000
vt 0.735609 0.000000
vt 1.000000 0.000000
vt 1.000000 1.000000
vn 0.000000 0.000000 1.000000
vn 0.000000 0.000000 1.000000
vn 0.000000 0.000000 1.000000
vn 0.000000 0.000000 1.000000
s off
g a polySurface5
usemtl initialShadingGroup
f 35/33/33 36/34/34 34/35/35 33/36/36
g default
v -5.916111 2.629469 0.000000
v -5.962716 2.443664 0.000000
v -5.811115 2.629469 0.000000
v -5.811115 2.443664 0.000000
vt 0.497923 0.000000
vt 0.497923 1.000000
vt 1.000000 0.000000
vt 1.000000 1.000000
vn 0.000000 0.000000 1.000000
vn 0.000000 0.000000 1.000000
vn 0.000000 0.000000 1.000000
vn 0.000000 0.000000 1.000000
s off
g a a1
usemtl initialShadingGroup
f 40/38/37 39/37/38 37/39/39 38/40/40
g default
v -5.611319 2.294359 0.000000
v -5.325064 2.294359 0.000000
v -5.374429 2.443664 0.000000
v -5.655048 2.443664 0.000000
vt 0.000000 0.000000
vt 0.206657 0.000000
vt 0.206657 1.000000
vt 0.000000 1.000000
vn 0.000000 0.000000 1.000000
vn 0.000000 0.000000 1.000000
vn 0.000000 0.000000 1.000000
vn 0.000000 0.000000 1.000000
s off
g a polySurface7
usemtl initialShadingGroup
f 42/41/41 43/42/42 44/43/43 41/44/44
g default
v -6.050848 3.001968 0.000000
v -5.811116 2.999835 0.000000
v -6.015210 3.110283 0.000000
v -5.811116 3.110284 0.000000
vt 0.024187 0.103598
vt 0.261696 0.104624
vt 0.298309 0.219952
vt 0.050848 0.217795
vn -0.000000 0.000000 1.000000
vn -0.000000 0.000000 1.000000
vn -0.000000 0.000000 1.000000
vn -0.000000 0.000000 1.000000
s off
g a polySurface3
usemtl initialShadingGroup
f 48/45/45 47/46/46 45/47/47 46/48/48
g default
v -5.811116 3.211780 0.000000
v -5.637867 3.211780 0.000000
v -5.811116 3.110284 0.000000
v -5.602700 3.110283 0.000000
vt 0.524334 1.000000
vt 0.524334 0.000000
vt 1.000000 0.000000
vt 1.000000 1.000000
vn -0.000000 0.000000 1.000000
vn -0.000000 0.000000 1.000000
vn -0.000000 0.000000 1.000000
vn -0.000000 0.000000 1.000000
s off
g a polySurface4
usemtl initialShadingGroup
f 51/49/49 52/50/50 50/51/51 49/52/52
g default
v -5.811116 2.999835 0.000000
v -5.563935 2.994834 -0.000000
v -5.811116 3.110284 0.000000
v -5.602700 3.110283 0.000000
vt 0.000000 0.000000
vt 0.524334 0.000000
vt 0.524334 1.000000
vt 0.000000 1.000000
vn 0.000000 -0.000000 1.000000
vn 0.000000 -0.000000 1.000000
vn 0.000000 -0.000000 1.000000
vn 0.000000 -0.000000 1.000000
s off
g a polySurface9
usemtl initialShadingGroup
f 54/53/53 56/54/54 55/55/55 53/56/56
