# This file uses centimeters as units for non-parametric coordinates.

mtllib D 2D Blocks.mtl
g default
v 1.962302 2.863342 0.000000
v 1.672058 2.863342 0.000000
v 1.962302 2.712173 0.000000
v 1.672058 2.712173 0.000000
vt 0.356304 1.000000
vt 0.356304 0.000000
vt 0.517177 0.000000
vt 0.517177 1.000000
vn 0.000000 -0.000000 1.000000
vn 0.000000 -0.000000 1.000000
vn 0.000000 -0.000000 1.000000
vn 0.000000 -0.000000 1.000000
s off
g polySurface64 d
usemtl initialShadingGroup
f 1/1/1 2/2/2 4/3/3 3/4/4
g default
v 1.672058 2.440069 0.000000
v 1.962302 2.440069 0.000000
v 1.962302 2.569504 0.000000
v 1.672058 2.569504 0.000000
vt 0.669005 1.000000
vt 0.669005 0.000000
vt 0.806749 0.000000
vt 0.806749 1.000000
vn 0.000000 0.000000 1.000000
vn 0.000000 0.000000 1.000000
vn 0.000000 0.000000 1.000000
vn 0.000000 0.000000 1.000000
s off
g d polySurface63
usemtl initialShadingGroup
f 7/5/5 8/6/6 5/7/7 6/8/8
g default
v 1.962302 3.200604 0.000000
v 1.962302 3.020875 0.000000
v 2.065328 3.020875 0.000000
v 2.123886 3.200604 0.000000
vt 0.000000 0.000000
vt 0.484901 0.000000
vt 0.484901 1.000000
vt 0.000000 1.000000
vn 0.000000 0.000000 1.000000
vn 0.000000 0.000000 1.000000
vn 0.000000 0.000000 1.000000
vn 0.000000 0.000000 1.000000
s off
g d polySurface74
usemtl initialShadingGroup
f 10/9/9 11/10/10 12/11/11 9/12/12
g default
v 2.306062 2.247172 0.000000
v 2.165867 2.440069 0.000000
v 2.455908 2.327659 0.000000
v 2.252440 2.484508 0.000000
vt 0.000000 0.000000
vt 1.000000 0.000000
vt 1.000000 1.000000
vt 0.000000 1.000000
vn -0.000000 0.000000 1.000000
vn -0.000000 0.000000 1.000000
vn -0.000000 0.000000 1.000000
vn -0.000000 0.000000 1.000000
s off
g d polySurface68
usemtl initialShadingGroup
f 14/13/13 13/14/14 15/15/15 16/16/16
g default
v 2.455908 2.327659 0.000000
v 2.252440 2.484508 0.000000
v 2.549553 2.445433 0.000000
v 2.295082 2.557349 0.000000
vt 0.000000 0.000000
vt 1.000000 0.000000
vt 1.000000 1.000000
vt 0.000000 1.000000
vn 0.000000 -0.000000 1.000000
vn 0.000000 -0.000000 1.000000
vn 0.000000 -0.000000 1.000000
vn 0.000000 -0.000000 1.000000
s off
g d polySurface77
usemtl initialShadingGroup
f 18/17/17 17/18/18 19/19/19 20/20/20
g default
v 2.598390 2.726956 -0.000000
v 2.303987 2.726225 0.000000
v 2.586796 2.576476 0.000000
v 2.304367 2.634927 0.000000
vt 0.000000 0.550037
vt 1.000000 0.550037
vt 1.000000 1.000000
vt 0.000000 1.000000
vn 0.000000 0.000000 1.000000
vn 0.000000 0.000000 1.000000
vn 0.000000 0.000000 1.000000
vn 0.000000 0.000000 1.000000
s off
g d polySurface78
usemtl initialShadingGroup
f 24/21/21 23/22/22 21/23/23 22/24/24
g default
v 2.297249 2.930182 0.000000
v 2.557722 3.012200 0.000000
v 2.589416 2.860320 0.000000
v 2.302557 2.832905 0.000000
vt 0.000000 0.498276
vt 1.000000 0.498276
vt 1.000000 1.000000
vt 0.000000 1.000000
vn 0.000000 -0.000000 1.000000
vn 0.000000 -0.000000 1.000000
vn 0.000000 -0.000000 1.000000
vn 0.000000 -0.000000 1.000000
s off
g d polySurface79
usemtl initialShadingGroup
f 28/25/25 27/26/26 26/27/27 25/28/28
g default
v 1.962303 2.247171 0.000000
v 1.962302 2.440069 0.000000
v 2.055519 2.440069 0.000000
v 2.123415 2.247171 0.000000
vt 0.537234 1.000000
vt 0.537234 0.000000
vt 1.000000 0.000000
vt 1.000000 1.000000
vn 0.000000 0.000000 1.000000
vn 0.000000 0.000000 1.000000
vn 0.000000 0.000000 1.000000
vn 0.000000 0.000000 1.000000
s off
g d polySurface73
usemtl initialShadingGroup
f 32/29/29 31/30/30 30/31/31 29/32/32
g default
v 2.448515 3.148459 0.000000
v 2.266463 2.989412 0.000000
v 2.297249 2.930182 0.000000
v 2.557722 3.012200 0.000000
vt 0.000000 0.000000
vt 1.000000 0.000000
vt 1.000000 1.000000
vt 0.000000 1.000000
vn 0.000000 0.000000 1.000000
vn 0.000000 0.000000 1.000000
vn 0.000000 0.000000 1.000000
vn 0.000000 0.000000 1.000000
s off
g d polySurface69
usemtl initialShadingGroup
f 33/33/33 34/34/34 35/35/35 36/36/36
g default
v 1.672058 2.247171 0.000000
v 1.962303 2.247171 0.000000
v 1.672058 2.440069 0.000000
v 1.962302 2.440069 0.000000
vt 0.806749 1.000000
vt 0.806749 0.000000
vt 1.000000 0.000000
vt 1.000000 1.000000
vn 0.000000 -0.000000 1.000000
vn 0.000000 -0.000000 1.000000
vn 0.000000 -0.000000 1.000000
vn 0.000000 -0.000000 1.000000
s off
g d polySurface65
usemtl initialShadingGroup
f 40/37/37 39/38/38 37/39/39 38/40/40
g default
v 2.549553 2.445433 0.000000
v 2.295082 2.557349 0.000000
v 2.586796 2.576476 0.000000
v 2.304367 2.634927 0.000000
vt 0.000000 0.000000
vt 1.000000 0.000000
vt 1.000000 0.550037
vt 0.000000 0.550037
vn 0.000000 -0.000000 1.000000
vn 0.000000 -0.000000 1.000000
vn 0.000000 -0.000000 1.000000
vn 0.000000 -0.000000 1.000000
s off
g d polySurface71
usemtl initialShadingGroup
f 42/41/41 41/42/42 43/43/43 44/44/44
g default
v 2.598390 2.726956 -0.000000
v 2.303987 2.726225 0.000000
v 2.589416 2.860320 0.000000
v 2.302557 2.832905 0.000000
vt 0.000000 0.000000
vt 1.000000 0.000000
vt 1.000000 0.498276
vt 0.000000 0.498276
vn 0.000000 -0.000000 1.000000
vn 0.000000 -0.000000 1.000000
vn 0.000000 -0.000000 1.000000
vn 0.000000 -0.000000 1.000000
s off
g d polySurface70
usemtl initialShadingGroup
f 46/45/45 45/46/46 47/47/47 48/48/48
g default
v 2.178304 3.020875 0.000000
v 2.299550 3.200604 0.000000
v 2.065328 3.020875 0.000000
v 2.123886 3.200604 0.000000
vt 0.484901 1.000000
vt 0.484901 0.000000
vt 1.000000 0.000000
vt 1.000000 1.000000
vn 0.000000 -0.000000 1.000000
vn 0.000000 -0.000000 1.000000
vn 0.000000 -0.000000 1.000000
vn 0.000000 -0.000000 1.000000
s off
g d polySurface72
usemtl initialShadingGroup
f 52/49/49 51/50/50 49/51/51 50/52/52
g default
v 1.962302 3.200604 0.000000
v 1.672058 3.200604 0.000000
v 1.672058 3.020875 0.000000
v 1.962302 3.020875 0.000000
vt 0.000000 0.000000
vt 0.188657 0.000000
vt 0.188657 1.000000
vt 0.000000 1.000000
vn 0.000000 0.000000 1.000000
vn 0.000000 0.000000 1.000000
vn 0.000000 0.000000 1.000000
vn 0.000000 0.000000 1.000000
s off
g d polySurface62
usemtl initialShadingGroup
f 54/53/53 55/54/54 56/55/55 53/56/56
g default
v 2.306062 2.247172 0.000000
v 2.165867 2.440069 0.000000
v 2.055519 2.440069 0.000000
v 2.123415 2.247171 0.000000
vt 0.000000 0.000000
vt 0.537234 0.000000
vt 0.537234 1.000000
vt 0.000000 1.000000
vn 0.000000 0.000000 1.000000
vn 0.000000 0.000000 1.000000
vn 0.000000 0.000000 1.000000
vn 0.000000 0.000000 1.000000
s off
g d polySurface75
usemtl initialShadingGroup
f 58/57/57 59/58/58 60/59/59 57/60/60
g default
v 2.178304 3.020875 0.000000
v 2.299550 3.200604 0.000000
v 2.448515 3.148459 0.000000
v 2.266463 2.989412 0.000000
vt 0.000000 0.000000
vt 1.000000 0.000000
vt 1.000000 1.000000
vt 0.000000 1.000000
vn -0.000000 -0.000000 1.000000
vn -0.000000 -0.000000 1.000000
vn -0.000000 -0.000000 1.000000
vn -0.000000 -0.000000 1.000000
s off
g d polySurface76
usemtl initialShadingGroup
f 64/61/61 63/62/62 62/63/63 61/64/64
g default
v 1.962302 2.712173 0.000000
v 1.672058 2.712173 0.000000
v 1.962302 2.569504 0.000000
v 1.672058 2.569504 0.000000
vt 0.517177 1.000000
vt 0.517177 0.000000
vt 0.669005 0.000000
vt 0.669005 1.000000
vn 0.000000 0.000000 1.000000
vn 0.000000 0.000000 1.000000
vn 0.000000 0.000000 1.000000
vn 0.000000 0.000000 1.000000
s off
g d polySurface67
usemtl initialShadingGroup
f 65/65/65 66/66/66 68/67/67 67/68/68
g default
v 1.672058 3.020875 0.000000
v 1.962302 3.020875 0.000000
v 1.962302 2.863342 0.000000
v 1.672058 2.863342 0.000000
vt 0.188657 1.000000
vt 0.188657 0.000000
vt 0.356304 0.000000
vt 0.356304 1.000000
vn 0.000000 0.000000 1.000000
vn 0.000000 0.000000 1.000000
vn 0.000000 0.000000 1.000000
vn 0.000000 0.000000 1.000000
s off
g d polySurface66
usemtl initialShadingGroup
f 70/69/69 69/70/70 72/71/71 71/72/72
