# This file uses centimeters as units for non-parametric coordinates.

mtllib E 2D Blocks.mtl
g default
v 5.090829 2.296081 0.000000
v 5.090829 2.485419 0.000000
v 4.934058 2.485420 0.000000
v 4.934057 2.296081 0.000000
vt 0.000000 0.000000
vt 0.331036 0.000000
vt 0.331036 1.000000
vt 0.000000 1.000000
vn -0.000000 0.000000 1.000000
vn -0.000000 0.000000 1.000000
vn -0.000000 0.000000 1.000000
vn -0.000000 0.000000 1.000000
s off
g polySurface82 e
usemtl initialShadingGroup
f 2/1/1 3/2/2 4/3/3 1/4/4
g default
v 4.617251 3.199940 0.000000
v 4.339304 3.199940 0.000000
v 4.339304 3.021825 0.000000
v 4.617251 3.021825 0.000000
vt 0.000000 0.000000
vt 0.191736 0.000000
vt 0.191736 1.000000
vt 0.000000 1.000000
vn 0.000000 0.000000 1.000000
vn 0.000000 0.000000 1.000000
vn 0.000000 0.000000 1.000000
vn 0.000000 0.000000 1.000000
s off
g e polySurface91
usemtl initialShadingGroup
f 6/5/5 7/6/6 8/7/7 5/8/8
g default
v 4.617251 2.296081 0.000000
v 4.617251 2.485419 0.000000
v 4.771628 2.485419 0.000000
v 4.771628 2.296081 0.000000
vt 0.674019 1.000000
vt 0.674019 0.000000
vt 1.000000 0.000000
vt 1.000000 1.000000
vn 0.000000 0.000000 1.000000
vn 0.000000 0.000000 1.000000
vn 0.000000 0.000000 1.000000
vn 0.000000 0.000000 1.000000
s off
g e polySurface85
usemtl initialShadingGroup
f 12/9/9 11/10/10 10/11/11 9/12/12
g default
v 5.090829 3.021825 0.000000
v 5.090829 3.199941 0.000000
v 4.921722 3.199941 0.000000
v 4.921721 3.021825 0.000000
vt 0.000000 0.000000
vt 0.357087 0.000000
vt 0.357086 1.000000
vt 0.000000 1.000000
vn 0.000000 0.000000 1.000000
vn 0.000000 0.000000 1.000000
vn 0.000000 0.000000 1.000000
vn 0.000000 0.000000 1.000000
s off
g e polySurface81
usemtl initialShadingGroup
f 14/13/13 15/14/14 16/15/15 13/16/16
g default
v 4.339304 2.296081 0.000000
v 4.617251 2.296081 0.000000
v 4.617251 2.485419 0.000000
v 4.339304 2.485419 0.000000
vt 0.789909 1.000000
vt 0.789909 0.000000
vt 1.000000 0.000000
vt 1.000000 1.000000
vn 0.000000 0.000000 1.000000
vn 0.000000 0.000000 1.000000
vn 0.000000 0.000000 1.000000
vn 0.000000 0.000000 1.000000
s off
g e polySurface92
usemtl initialShadingGroup
f 19/17/17 20/18/18 17/19/19 18/20/20
g default
v 4.617251 2.672467 0.000000
v 4.339304 2.675190 0.000000
v 4.339304 2.850937 0.000000
v 4.617251 2.850937 0.000000
vt 0.378893 1.000000
vt 0.378893 0.000000
vt 0.579825 0.000000
vt 0.579825 1.000000
vn 0.000000 -0.000000 1.000000
vn 0.000000 -0.000000 1.000000
vn 0.000000 -0.000000 1.000000
vn 0.000000 -0.000000 1.000000
s off
g e polySurface93
usemtl initialShadingGroup
f 24/21/21 23/22/22 22/23/23 21/24/24
g default
v 4.773685 3.199941 0.000000
v 4.773685 3.021825 0.000000
v 4.921722 3.199941 0.000000
v 4.921721 3.021825 0.000000
vt 0.357086 1.000000
vt 0.357087 0.000000
vt 0.669677 0.000000
vt 0.669677 1.000000
vn -0.000000 -0.000000 1.000000
vn -0.000000 -0.000000 1.000000
vn -0.000000 -0.000000 1.000000
vn -0.000000 -0.000000 1.000000
s off
g e polySurface88
usemtl initialShadingGroup
f 28/25/25 27/26/26 25/27/27 26/28/28
g default
v 4.617251 2.672467 0.000000
v 4.339304 2.675190 0.000000
v 4.617251 2.485419 0.000000
v 4.339304 2.485419 0.000000
vt 0.579825 1.000000
vt 0.579825 0.000000
vt 0.789909 0.000000
vt 0.789909 1.000000
vn -0.000000 0.000000 1.000000
vn -0.000000 0.000000 1.000000
vn -0.000000 0.000000 1.000000
vn -0.000000 0.000000 1.000000
s off
g e polySurface87
usemtl initialShadingGroup
f 29/29/29 30/30/30 32/31/31 31/32/32
g default
v 5.051352 2.672467 0.000000
v 5.051352 2.850937 0.000000
v 4.909384 2.850937 0.000000
v 4.909384 2.672467 0.000000
vt 0.000000 0.000000
vt 0.327038 0.000000
vt 0.327038 1.000000
vt 0.000000 1.000000
vn -0.000000 -0.000000 1.000000
vn -0.000000 -0.000000 1.000000
vn -0.000000 -0.000000 1.000000
vn -0.000000 -0.000000 1.000000
s off
g e polySurface80
usemtl initialShadingGroup
f 34/33/33 35/34/34 36/35/35 33/36/36
g default
v 4.771628 2.485419 0.000000
v 4.771628 2.296081 0.000000
v 4.934058 2.485420 0.000000
v 4.934057 2.296081 0.000000
vt 0.331036 1.000000
vt 0.331036 0.000000
vt 0.674019 0.000000
vt 0.674019 1.000000
vn 0.000000 0.000000 1.000000
vn 0.000000 0.000000 1.000000
vn 0.000000 0.000000 1.000000
vn 0.000000 0.000000 1.000000
s off
g e polySurface90
usemtl initialShadingGroup
f 40/37/37 39/38/38 37/39/39 38/40/40
g default
v 4.771628 2.850937 0.000000
v 4.771629 2.672467 0.000000
v 4.909384 2.850937 0.000000
v 4.909384 2.672467 0.000000
vt 0.327038 1.000000
vt 0.327038 0.000000
vt 0.644374 0.000000
vt 0.644374 1.000000
vn 0.000000 0.000000 1.000000
vn 0.000000 0.000000 1.000000
vn 0.000000 0.000000 1.000000
vn 0.000000 0.000000 1.000000
s off
g e polySurface89
usemtl initialShadingGroup
f 44/41/41 43/42/42 41/43/43 42/44/44
g default
v 4.339304 3.021825 0.000000
v 4.617251 3.021825 0.000000
v 4.339304 2.850937 0.000000
v 4.617251 2.850937 0.000000
vt 0.191736 1.000000
vt 0.191736 0.000000
vt 0.378893 0.000000
vt 0.378893 1.000000
vn 0.000000 0.000000 1.000000
vn 0.000000 0.000000 1.000000
vn 0.000000 0.000000 1.000000
vn 0.000000 0.000000 1.000000
s off
g e polySurface86
usemtl initialShadingGroup
f 46/45/45 45/46/46 47/47/47 48/48/48
g default
v 4.617251 2.672467 0.000000
v 4.617251 2.850937 0.000000
v 4.771628 2.850937 0.000000
v 4.771629 2.672467 0.000000
vt 0.644374 1.000000
vt 0.644374 0.000000
vt 1.000000 0.000000
vt 1.000000 1.000000
vn 0.000000 -0.000000 1.000000
vn 0.000000 -0.000000 1.000000
vn 0.000000 -0.000000 1.000000
vn 0.000000 -0.000000 1.000000
s off
g e polySurface84
usemtl initialShadingGroup
f 52/49/49 51/50/50 50/51/51 49/52/52
g default
v 4.617251 3.199940 0.000000
v 4.617251 3.021825 0.000000
v 4.773685 3.199941 0.000000
v 4.773685 3.021825 0.000000
vt 0.669677 1.000000
vt 0.669677 0.000000
vt 1.000000 0.000000
vt 1.000000 1.000000
vn 0.000000 0.000000 1.000000
vn 0.000000 0.000000 1.000000
vn 0.000000 0.000000 1.000000
vn 0.000000 0.000000 1.000000
s off
g e polySurface83
usemtl initialShadingGroup
f 56/53/53 55/54/54 53/55/55 54/56/56
